<svg width="512" height="512" viewBox="0 0 512 512" fill="none" xmlns="http://www.w3.org/2000/svg">
<g clip-path="url(#clip0_1_2)">
<path d="M147.298 184.143H171.405V208.25H147.298V184.143ZM123.191 184.143H147.298V208.25H123.191V184.143ZM123.191 160.036H147.298V184.143H123.191V160.036ZM147.298 160.036H171.405V184.143H147.298V160.036ZM123.191 135.929H147.298V160.036H123.191V135.929ZM99.0838 135.929H123.191V160.036H99.0838V135.929ZM99.0838 160.036H123.191V184.143H99.0838V160.036ZM74.9767 160.036H99.0838V184.143H74.9767V160.036ZM50.8696 160.036H74.9767V184.143H50.8696V160.036ZM50.8696 135.929H74.9767V160.036H50.8696V135.929ZM26.7624 135.929H50.8696V160.036H26.7624V135.929ZM74.9767 135.929H99.0838V160.036H74.9767V135.929ZM26.7624 160.036H50.8696V184.143H26.7624V160.036ZM2.65527 160.036H26.7624V184.143H2.65527V160.036ZM2.65527 184.143H26.7624V208.25H2.65527V184.143ZM26.7624 184.143H50.8696V208.25H26.7624V184.143ZM26.7624 208.25H50.8696V232.357H26.7624V208.25ZM26.7624 232.357H50.8696V256.464H26.7624V232.357ZM2.65527 232.357H26.7624V256.464H2.65527V232.357ZM2.65527 208.25H26.7624V232.357H2.65527V208.25ZM26.7624 256.464H50.8696V280.571H26.7624V256.464ZM50.8696 256.464H74.9767V280.571H50.8696V256.464ZM50.8696 232.357H74.9767V256.464H50.8696V232.357ZM74.9767 232.357H99.0838V256.464H74.9767V232.357ZM99.0838 232.357H123.191V256.464H99.0838V232.357ZM123.191 232.357H147.298V256.464H123.191V232.357ZM123.191 256.464H147.298V280.571H123.191V256.464ZM99.0838 256.464H123.191V280.571H99.0838V256.464ZM74.9767 256.464H99.0838V280.571H74.9767V256.464ZM147.298 256.464H171.405V280.571H147.298V256.464ZM147.298 280.571H171.405V304.679H147.298V280.571ZM123.191 280.571H147.298V304.679H123.191V280.571ZM99.0838 328.786H123.191V352.893H99.0838V328.786ZM123.191 328.786H147.298V352.893H123.191V328.786ZM123.191 304.679H147.298V328.786H123.191V304.679ZM147.298 304.679H171.405V328.786H147.298V304.679ZM147.298 328.786H171.405V352.893H147.298V328.786ZM123.191 352.893H147.298V377H123.191V352.893ZM99.0838 352.893H123.191V377H99.0838V352.893ZM74.9767 352.893H99.0838V377H74.9767V352.893ZM50.8696 352.893H74.9767V377H50.8696V352.893ZM26.7624 352.893H50.8696V377H26.7624V352.893ZM26.7624 328.786H50.8696V352.893H26.7624V328.786ZM50.8696 328.786H74.9767V352.893H50.8696V328.786ZM74.9767 328.786H99.0838V352.893H74.9767V328.786ZM2.65527 328.786H26.7624V352.893H2.65527V328.786ZM2.65527 304.679H26.7624V328.786H2.65527V304.679ZM26.7624 304.679H50.8696V328.786H26.7624V304.679ZM195.575 352.893H219.682V377H195.575V352.893ZM195.575 328.786H219.682V352.893H195.575V328.786ZM195.575 304.679H219.682V328.786H195.575V304.679ZM195.575 280.571H219.682V304.679H195.575V280.571ZM195.575 256.464H219.682V280.571H195.575V256.464ZM195.575 232.357H219.682V256.464H195.575V232.357ZM219.682 232.357H243.789V256.464H219.682V232.357ZM219.682 208.25H243.789V232.357H219.682V208.25ZM219.682 184.143H243.789V208.25H219.682V184.143ZM219.682 160.036H243.789V184.143H219.682V160.036ZM195.575 160.036H219.682V184.143H195.575V160.036ZM195.575 135.929H219.682V160.036H195.575V135.929ZM195.575 184.143H219.682V208.25H195.575V184.143ZM195.575 208.25H219.682V232.357H195.575V208.25ZM219.682 135.929H243.789V160.036H219.682V135.929ZM219.682 256.464H243.789V280.571H219.682V256.464ZM219.682 280.571H243.789V304.679H219.682V280.571ZM219.682 304.679H243.789V328.786H219.682V304.679ZM219.682 328.786H243.789V352.893H219.682V328.786ZM219.682 352.893H243.789V377H219.682V352.893ZM243.789 184.143H267.897V208.25H243.789V184.143ZM243.789 208.25H267.897V232.357H243.789V208.25ZM267.897 208.25H292.004V232.357H267.897V208.25ZM267.897 232.357H292.004V256.464H267.897V232.357ZM292.004 232.357H316.111V256.464H292.004V232.357ZM292.004 256.464H316.111V280.571H292.004V256.464ZM316.111 232.357H340.218V256.464H316.111V232.357ZM316.111 208.25H340.218V232.357H316.111V208.25ZM340.218 208.25H364.325V232.357H340.218V208.25ZM340.218 184.143H364.325V208.25H340.218V184.143ZM364.325 135.929H388.432V160.036H364.325V135.929ZM364.325 160.036H388.432V184.143H364.325V160.036ZM364.325 184.143H388.432V208.25H364.325V184.143ZM364.325 208.25H388.432V232.357H364.325V208.25ZM364.325 232.357H388.432V256.464H364.325V232.357ZM364.325 256.464H388.432V280.571H364.325V256.464ZM364.325 280.571H388.432V304.679H364.325V280.571ZM364.325 304.679H388.432V328.786H364.325V304.679ZM364.325 328.786H388.432V352.893H364.325V328.786ZM364.325 352.893H388.432V377H364.325V352.893ZM388.432 352.893H412.539V377H388.432V352.893ZM388.432 328.786H412.539V352.893H388.432V328.786ZM388.432 304.679H412.539V328.786H388.432V304.679ZM388.432 280.571H412.539V304.679H388.432V280.571ZM388.432 256.464H412.539V280.571H388.432V256.464ZM388.432 232.357H412.539V256.464H388.432V232.357ZM388.432 208.25H412.539V232.357H388.432V208.25ZM388.432 184.143H412.539V208.25H388.432V184.143ZM388.432 160.036H412.539V184.143H388.432V160.036ZM388.432 135.929H412.539V160.036H388.432V135.929ZM243.789 160.036H267.897V184.143H243.789V160.036ZM267.897 184.143H292.004V208.25H267.897V184.143ZM292.004 208.25H316.111V232.357H292.004V208.25ZM316.111 184.143H340.218V208.25H316.111V184.143ZM340.218 160.036H364.325V184.143H340.218V160.036ZM436.835 328.786H460.942V352.893H436.835V328.786ZM460.942 328.786H485.049V352.893H460.942V328.786ZM460.942 352.893H485.049V377H460.942V352.893ZM436.835 352.893H460.942V377H436.835V352.893Z" fill="black"/>
</g>
<defs>
<clipPath id="clip0_1_2">
<rect width="512" height="512" fill="white"/>
</clipPath>
</defs>
</svg>
